# xmcd
#
# Track frame offsets:
#	150
#	21245
#	36420
#	54122
#	70330
#	86532
#	99377
#	111565
#	122787
#	140100
#
# Disc length: 2090 seconds
#
# Revision: 6
# Processed by: cddbd v1.5.2PL0 Copyright (c) Steve Scherf et al.
# Submitted via: EasyCDDAExtractor 9.1.3.1
#
DISCID=8e08280a,99082a0a
DTITLE=Clint Black - The Hard Way
DYEAR=1992
DGENRE=Country
TTITLE0=We Tell Ourselves
TTITLE1=The Hard Way
TTITLE2=Something To Cry About
TTITLE3=Buying Time
TTITLE4=When My Ship Comes In
TTITLE5=A Woman Has Her Way
TTITLE6=There Never Was A Train
TTITLE7=The Good Old Days
TTITLE8=Burn One Down
TTITLE9=Wake Up Yesterday
EXTD=
EXTT0=
EXTT1=
EXTT2=
EXTT3=
EXTT4=
EXTT5=
EXTT6=
EXTT7=
EXTT8=
EXTT9=
PLAYORDER=
